<?xml version="1.0" standalone="no"?>
<!DOCTYPE svg PUBLIC "-//W3C//DTD SVG 20010904//EN"
 "http://www.w3.org/TR/2001/REC-SVG-20010904/DTD/svg10.dtd">
<svg version="1.0" xmlns="http://www.w3.org/2000/svg"
 width="470.000000pt" height="192.000000pt" viewBox="0 0 470.000000 192.000000"
 preserveAspectRatio="xMidYMid meet">

<g transform="translate(0.000000,192.000000) scale(0.100000,-0.100000)"
fill="#b8860b" stroke="none">
<path d="M3910 1413 c-30 -8 -106 -30 -168 -49 -129 -39 -132 -39 -132 -19 0
9 -9 15 -21 15 -21 0 -22 -3 -15 -92 3 -51 8 -102 10 -113 18 -100 18 -117 -3
-132 -12 -8 -26 -23 -32 -34 -11 -21 -5 -22 46 -2 6 2 19 -34 29 -84 20 -99
41 -146 81 -183 22 -21 36 -25 83 -24 71 1 104 18 187 95 58 55 65 59 65 38 1
-32 32 -100 57 -122 11 -10 36 -20 56 -24 89 -14 264 140 302 265 6 22 5 23
-14 13 -12 -7 -30 -30 -42 -53 -29 -57 -111 -141 -158 -163 -47 -21 -99 -15
-126 15 -60 66 -44 304 30 450 33 65 137 158 192 172 54 13 62 25 27 38 -38
15 -122 -26 -182 -89 -85 -88 -133 -213 -148 -385 -7 -76 -9 -80 -47 -115 -73
-66 -127 -95 -180 -94 -52 1 -79 18 -104 67 -29 55 -49 148 -44 202 1 14 178
80 237 90 23 3 47 9 53 13 16 10 3 41 -18 41 -17 0 -175 -47 -248 -73 l-42
-16 -7 57 c-4 31 -7 79 -8 106 l-1 49 154 53 c179 61 232 83 225 95 -7 12 -28
10 -94 -8z"/>
<path d="M412 1358 c-7 -7 -12 -17 -12 -24 0 -6 -15 -19 -34 -28 -38 -18 -91
-73 -101 -106 -11 -33 1 -35 20 -3 16 28 63 65 97 78 20 8 27 -28 30 -155 l3
-85 -38 -20 c-34 -18 -47 -42 -30 -58 3 -4 11 -3 17 2 6 5 21 12 34 15 l22 7
0 -140 c0 -154 3 -146 -60 -141 l-25 2 21 -21 c29 -30 79 -29 154 4 144 64
253 152 299 243 28 55 27 97 -3 127 -30 30 -77 39 -172 33 l-75 -5 29 31 c79
85 103 146 78 194 -22 42 -63 55 -151 50 -41 -3 -75 -1 -75 4 0 12 -14 10 -28
-4z m188 -53 c36 -19 39 -48 10 -105 -30 -59 -138 -155 -155 -139 -2 3 -8 55
-11 115 -5 87 -4 112 7 121 31 25 108 29 149 8z m168 -273 c13 -8 22 -22 22
-36 0 -60 -118 -181 -232 -238 -91 -46 -94 -46 -102 8 -3 26 -6 88 -6 139 l0
92 38 17 c76 34 231 44 280 18z"/>
<path d="M2572 1358 c-7 -7 -12 -18 -12 -25 0 -7 -15 -19 -32 -26 -55 -24
-108 -88 -108 -130 0 -7 9 2 20 19 19 30 89 84 109 84 13 0 18 -39 20 -149 l2
-97 -35 -19 c-25 -14 -36 -26 -36 -42 0 -27 7 -28 34 -8 43 33 47 24 44 -122
l-3 -138 -39 -5 c-37 -5 -38 -6 -19 -22 24 -22 70 -26 114 -9 106 41 186 89
250 151 105 102 135 187 83 235 -33 30 -70 38 -166 33 l-75 -3 43 50 c47 56
64 91 64 135 0 42 -9 59 -42 76 -32 17 -154 18 -175 2 -7 -6 -14 -4 -20 7 -7
12 -12 12 -21 3z m203 -58 c20 -17 19 -46 -5 -95 -32 -65 -138 -160 -157 -141
-3 3 -8 57 -11 119 l-5 114 39 11 c47 13 118 9 139 -8z m135 -263 c45 -16 50
-44 15 -103 -43 -73 -190 -182 -282 -209 -20 -5 -22 -1 -28 47 -3 29 -5 93 -3
142 l3 89 40 14 c88 32 196 40 255 20z"/>
<path d="M1750 1078 l0 -84 -52 -3 c-59 -3 -68 -6 -68 -28 0 -13 10 -15 60
-10 41 3 60 1 61 -7 0 -6 2 -18 3 -26 2 -8 6 -52 10 -96 10 -129 29 -164 89
-164 26 0 77 34 77 51 0 6 -13 1 -28 -10 -67 -47 -99 2 -104 159 l-3 105 65
12 c114 21 104 30 117 -108 13 -129 25 -159 68 -159 27 0 47 16 79 64 l26 39
0 -50 c0 -39 -5 -54 -24 -72 -68 -64 -110 -256 -72 -330 21 -40 53 -56 87 -42
35 13 40 36 45 226 l4 160 46 33 c25 17 52 32 60 32 8 0 14 4 14 10 0 14 -58
0 -97 -23 l-33 -19 7 106 c6 101 5 106 -13 106 -16 0 -24 -15 -41 -73 -23 -76
-60 -124 -87 -114 -24 9 -44 102 -45 210 l-1 48 -57 -5 c-32 -3 -79 -9 -105
-12 l-47 -6 -3 79 c-3 65 -6 78 -20 81 -16 3 -18 -6 -18 -80z m408 -565 c-5
-140 -11 -163 -39 -163 -65 0 -64 172 2 279 34 55 42 29 37 -116z"/>
<path d="M1404 926 l4 -116 -39 -35 c-81 -73 -105 -28 -78 146 6 39 8 73 5 76
-11 12 -75 -9 -109 -35 -19 -15 -54 -55 -78 -90 -71 -105 -186 -177 -218 -138
-11 13 -5 23 41 68 64 62 97 133 79 167 -9 16 -21 21 -52 21 -52 0 -92 -40
-114 -113 -24 -80 -20 -124 14 -158 47 -46 113 -36 171 26 l25 27 5 -33 c12
-75 73 -63 143 29 l47 63 0 -49 c0 -94 50 -107 122 -31 l38 40 0 -44 c0 -48
17 -71 47 -65 10 2 34 29 53 62 l34 58 11 -43 c8 -36 14 -45 36 -47 28 -3 73
27 90 61 l12 22 -24 -21 c-76 -68 -92 -51 -90 92 1 95 -1 105 -17 102 -12 -2
-19 -17 -23 -53 -11 -91 -78 -214 -94 -173 -4 9 -7 78 -8 154 -2 122 -4 139
-19 142 -15 3 -17 -8 -14 -112z m-427 -3 c-5 -28 -19 -50 -53 -83 -26 -24 -49
-40 -51 -34 -7 20 38 124 60 139 37 26 50 20 44 -22z m277 10 c-13 -54 -49
-117 -89 -160 -50 -52 -65 -54 -65 -10 0 42 49 127 97 166 48 39 66 40 57 4z"/>
<path d="M3020 1000 c0 -68 23 -230 37 -257 29 -59 81 -39 140 53 11 16 12 10
8 -35 -3 -38 -10 -60 -26 -74 -33 -30 -70 -120 -81 -195 -12 -81 3 -134 45
-166 26 -19 30 -19 55 -5 35 19 39 43 41 226 l1 151 31 26 c17 15 47 33 65 41
19 8 34 17 34 20 0 9 -52 -6 -94 -26 l-38 -20 3 103 c4 90 2 103 -13 106 -13
2 -20 -8 -28 -40 -34 -133 -92 -187 -121 -111 -5 14 -12 61 -15 102 -3 42 -7
86 -10 99 -5 27 -34 30 -34 2z m193 -535 c-3 -44 -9 -88 -14 -97 -14 -27 -47
-22 -63 10 -26 51 0 199 46 258 l23 29 7 -60 c4 -33 5 -96 1 -140z"/>
</g>
</svg>
