<?xml version="1.0" standalone="no"?>
<!DOCTYPE svg PUBLIC "-//W3C//DTD SVG 20010904//EN"
 "http://www.w3.org/TR/2001/REC-SVG-20010904/DTD/svg10.dtd">
<svg version="1.0" xmlns="http://www.w3.org/2000/svg"
 width="720.000000pt" height="187.000000pt" viewBox="0 0 720.000000 187.000000"
 preserveAspectRatio="xMidYMid meet">

<g transform="translate(0.000000,187.000000) scale(0.100000,-0.100000)"
fill="#b8860b" stroke="none">
<path d="M582 1461 l-204 -48 -124 -124 c-68 -68 -124 -128 -124 -134 0 -15
985 -1015 1000 -1015 10 0 993 995 999 1011 2 6 -55 68 -126 139 -109 108
-136 130 -169 136 -21 3 -116 24 -210 45 l-172 39 -333 -1 -334 -1 -203 -47z
m973 -18 c28 -10 81 -22 163 -38 18 -4 32 -9 30 -11 -2 -2 -77 -19 -165 -39
l-161 -35 -324 4 -323 3 -135 34 -135 35 135 31 135 31 375 -2 c239 -1 386 -6
405 -13z m-965 -115 c52 -11 113 -25 134 -30 l39 -10 -124 -124 c-102 -102
-125 -121 -131 -107 -4 10 -21 74 -38 143 -17 69 -33 133 -36 144 -7 20 -11
21 156 -16z m1236 -13 c-4 -25 -8 -50 -11 -57 -2 -7 -7 -31 -10 -53 -14 -97
-28 -165 -34 -165 -6 0 -36 28 -198 182 -65 61 -70 68 -50 73 154 36 276 63
290 64 16 1 18 -5 13 -44z m-1366 -272 c0 -9 -235 95 -259 114 -3 2 38 46 89
98 l95 95 37 -147 c21 -82 38 -153 38 -160z m1600 117 c0 -3 -55 -34 -121 -69
-94 -49 -120 -59 -116 -45 3 11 8 35 11 54 3 19 8 44 10 55 2 11 9 54 16 95 7
41 15 79 17 84 5 7 183 -162 183 -174z m-716 53 c-32 -38 -90 -104 -128 -148
-38 -44 -73 -84 -78 -90 -5 -6 -23 7 -46 35 -20 24 -75 87 -121 140 -47 52
-91 103 -99 113 -14 16 -1 17 258 17 l272 0 -58 -67z m-437 -59 c54 -63 114
-133 133 -156 l35 -40 -70 6 c-39 4 -117 11 -175 17 -58 5 -123 11 -145 14
-22 2 -62 4 -89 4 l-50 1 130 134 c71 73 130 134 131 135 1 0 46 -51 100 -115z
m713 -39 c35 -33 76 -71 90 -85 l25 -24 -190 -17 c-104 -9 -228 -20 -274 -24
l-84 -7 28 34 c15 18 75 88 133 155 l105 123 51 -48 c28 -26 80 -75 116 -107z
m-1188 -121 c41 -21 69 -45 102 -89 25 -33 49 -64 54 -70 4 -5 21 -28 37 -50
17 -22 32 -42 35 -45 5 -5 90 -116 152 -199 47 -62 31 -54 -44 22 -40 41 -170
172 -288 291 -236 239 -235 235 -48 140z m1548 63 c0 -1 -115 -117 -256 -257
l-256 -255 167 210 c167 209 168 210 254 257 86 48 91 50 91 45z m-1220 -117
c63 -5 164 -14 224 -20 60 -5 113 -10 118 -10 4 0 8 -151 8 -335 0 -217 -4
-335 -10 -335 -5 0 -10 4 -10 9 0 5 -6 16 -13 23 -7 7 -31 38 -54 68 -23 30
-71 93 -107 140 -37 47 -74 96 -84 110 -9 14 -41 57 -72 95 -30 39 -75 97
-100 130 -24 33 -46 62 -49 65 -4 3 -19 22 -35 43 l-28 39 48 -6 c27 -3 101
-10 164 -16z m970 14 c0 -3 -129 -167 -287 -365 l-288 -360 -3 337 c-1 185 -1
339 1 340 2 2 113 13 248 24 134 11 253 22 264 24 35 6 65 6 65 0z"/>
<path d="M6135 1360 c-55 -16 -129 -38 -165 -49 -78 -25 -90 -26 -90 -6 0 9
-9 15 -21 15 -21 0 -22 -3 -15 -92 3 -51 8 -102 10 -113 19 -105 18 -111 -15
-144 -33 -34 -34 -50 -1 -32 12 6 25 11 29 11 5 0 17 -39 27 -87 33 -161 90
-225 187 -209 58 9 90 28 164 97 62 58 65 60 65 35 0 -32 30 -94 58 -119 32
-29 81 -31 137 -6 82 36 195 164 220 247 6 22 5 23 -14 13 -12 -7 -30 -30 -42
-53 -30 -60 -107 -138 -158 -160 -145 -65 -204 86 -136 349 14 51 35 110 49
131 38 61 135 141 184 154 53 13 61 25 25 39 -65 24 -196 -78 -258 -202 -40
-79 -61 -159 -71 -273 -7 -77 -8 -79 -51 -120 -67 -62 -120 -88 -176 -88 -52
0 -78 16 -104 66 -29 55 -49 148 -44 202 1 14 178 80 237 90 23 3 47 9 53 13
15 9 3 41 -15 41 -30 0 -172 -43 -275 -85 -17 -6 -22 13 -34 150 l-6 60 123
39 c161 51 269 96 262 107 -8 13 -28 10 -139 -21z"/>
<path d="M2682 1318 c-7 -7 -12 -17 -12 -22 0 -6 -22 -24 -47 -41 -49 -31 -93
-86 -93 -114 1 -13 3 -12 15 4 46 62 111 107 125 85 4 -6 8 -46 10 -88 1 -43
3 -93 4 -112 1 -31 -3 -37 -36 -55 -35 -18 -48 -42 -32 -58 4 -3 19 0 35 8 15
8 30 15 34 15 3 0 5 -63 5 -140 0 -152 3 -145 -57 -140 -33 2 -19 -28 16 -36
14 -3 31 -7 36 -8 13 -4 66 15 140 50 198 93 327 272 251 349 -30 29 -74 38
-171 33 l-74 -3 28 30 c77 83 102 145 77 193 -8 15 -26 33 -41 40 -31 14 -124
16 -159 2 -21 -7 -26 -6 -26 5 0 18 -12 19 -28 3z m188 -53 c36 -19 39 -48 10
-106 -31 -60 -137 -155 -155 -138 -2 3 -8 56 -11 117 l-7 112 34 14 c44 20 93
20 129 1z m150 -268 c45 -15 50 -44 16 -102 -44 -74 -195 -188 -279 -209 -23
-5 -25 -3 -29 32 -3 20 -6 82 -7 138 l-2 100 38 18 c73 33 201 44 263 23z"/>
<path d="M4842 1318 c-7 -7 -12 -18 -12 -25 0 -6 -15 -19 -33 -28 -46 -22 -94
-74 -102 -110 l-7 -30 21 30 c23 33 88 85 107 85 16 0 21 -33 23 -149 l2 -97
-35 -19 c-25 -14 -36 -26 -36 -42 0 -27 7 -28 34 -8 43 33 47 24 44 -122 l-3
-138 -39 -5 c-37 -5 -38 -6 -19 -22 39 -35 86 -26 228 44 120 60 231 181 242
266 5 35 2 44 -22 66 -34 31 -70 39 -167 34 l-75 -3 43 50 c69 81 85 155 42
195 -30 28 -56 33 -138 28 -38 -3 -73 -1 -77 3 -5 5 -14 4 -21 -3z m183 -48
c34 -13 40 -33 26 -80 -19 -62 -146 -188 -168 -166 -3 3 -8 57 -11 119 l-5
114 39 11 c52 13 87 14 119 2z m155 -273 c26 -9 36 -19 38 -37 7 -57 -112
-183 -230 -242 -88 -44 -94 -44 -102 -1 -3 21 -6 84 -6 140 l0 103 37 15 c76
32 203 42 263 22z"/>
<path d="M4027 1114 c-4 -4 -7 -42 -7 -84 l0 -76 -52 -3 c-59 -3 -68 -6 -68
-28 0 -13 10 -15 60 -10 41 3 60 1 61 -7 0 -6 2 -18 3 -26 2 -8 6 -52 10 -96
10 -129 29 -164 89 -164 26 0 77 34 77 51 0 6 -13 1 -28 -10 -65 -46 -97 1
-106 156 l-6 102 37 10 c21 5 61 12 89 16 l51 7 8 -99 c7 -108 21 -161 46
-176 29 -18 66 1 98 50 l31 46 0 -50 c0 -39 -5 -54 -24 -72 -68 -64 -110 -256
-72 -329 32 -62 95 -66 117 -9 6 18 13 101 15 192 l3 160 44 30 c24 17 53 35
63 42 16 10 14 11 -16 6 -19 -3 -47 -14 -62 -24 -14 -11 -29 -19 -32 -19 -3 0
-3 47 1 105 6 101 5 105 -14 105 -16 0 -23 -13 -38 -66 -18 -67 -55 -124 -81
-124 -29 0 -52 95 -54 218 l0 43 -67 -6 c-38 -3 -85 -8 -105 -11 l-37 -5 -3
77 c-3 71 -13 96 -31 78z m401 -631 c-3 -76 -8 -146 -13 -155 -9 -23 -33 -23
-57 -1 -35 32 -18 181 32 261 37 59 43 42 38 -105z"/>
<path d="M3675 886 l3 -116 -39 -35 c-81 -73 -105 -28 -78 146 6 39 8 73 5 76
-11 12 -75 -9 -109 -35 -19 -15 -55 -55 -78 -90 -47 -69 -147 -152 -184 -152
-12 0 -28 7 -35 15 -10 12 -2 24 42 67 64 62 97 133 79 167 -19 35 -85 29
-122 -10 -55 -59 -76 -185 -39 -232 41 -52 119 -45 176 14 l29 31 5 -33 c12
-75 73 -63 143 29 l47 63 0 -49 c0 -94 50 -107 122 -31 l38 40 0 -44 c0 -48
17 -71 47 -65 10 2 34 29 53 62 l34 58 11 -43 c8 -36 14 -45 36 -47 28 -3 73
27 90 61 l12 22 -24 -21 c-76 -68 -92 -51 -90 92 1 95 -1 105 -17 102 -12 -2
-19 -17 -23 -53 -11 -89 -79 -215 -94 -174 -2 8 -6 77 -7 154 -3 119 -5 140
-19 143 -14 3 -16 -11 -14 -112z m-428 -3 c-5 -28 -19 -50 -53 -83 -26 -24
-49 -40 -51 -34 -7 20 38 124 60 139 37 26 50 20 44 -22z m277 10 c-13 -54
-49 -117 -89 -160 -49 -51 -65 -54 -65 -13 0 43 34 104 85 156 52 52 79 58 69
17z"/>
<path d="M5290 960 c0 -68 23 -230 37 -257 29 -59 82 -38 140 53 10 16 11 10
8 -35 -4 -41 -12 -61 -34 -86 -67 -76 -99 -256 -58 -319 42 -64 108 -53 120
21 4 21 7 102 7 180 l0 141 31 26 c17 15 47 33 65 41 19 8 34 17 34 20 0 9
-52 -6 -94 -27 l-38 -19 3 103 c4 90 2 103 -13 106 -13 2 -20 -8 -28 -40 -26
-103 -66 -161 -98 -142 -22 14 -40 84 -41 161 -1 34 -4 68 -7 77 -9 23 -34 20
-34 -4z m194 -513 c-2 -53 -8 -106 -14 -117 -15 -29 -47 -25 -64 8 -26 51 0
199 46 258 l23 29 6 -40 c3 -22 5 -84 3 -138z"/>
</g>
</svg>
